<?xml version="1.0" standalone="no"?>
<!DOCTYPE svg PUBLIC "-//W3C//DTD SVG 20010904//EN"
 "http://www.w3.org/TR/2001/REC-SVG-20010904/DTD/svg10.dtd">
<svg version="1.0" xmlns="http://www.w3.org/2000/svg"
 width="164.000000pt" height="178.000000pt" viewBox="0 0 164.000000 178.000000"
 preserveAspectRatio="xMidYMid meet">

<g transform="translate(0.000000,178.000000) scale(0.100000,-0.100000)"
fill="#000000" stroke="none">
<path d="M670 1215 l0 -75 95 0 95 0 0 -200 c0 -223 -5 -247 -59 -270 -30 -12
-124 -9 -199 6 l-33 6 3 -83 3 -84 65 -8 c36 -4 107 -6 159 -3 161 8 254 70
280 186 6 25 11 170 11 323 l0 277 -210 0 -210 0 0 -75z"/>
</g>
</svg>
